<?xml version="1.0" encoding="utf-8"?>
<!-- Generator: Adobe Illustrator 25.4.1, SVG Export Plug-In . SVG Version: 6.00 Build 0)  -->
<svg version="1.1" id="Layer_1" xmlns="http://www.w3.org/2000/svg" xmlns:xlink="http://www.w3.org/1999/xlink" x="0px" y="0px"
	 viewBox="0 0 300 300" style="enable-background:new 0 0 300 300;" xml:space="preserve">
<style type="text/css">
	.st0{fill:#B7904D;}
	.st1{fill:#284A92;}
	.st2{font-family:'MyriadPro-Regular';}
	.st3{font-size:46.0753px;}
	.st4{font-size:15.5061px;}
	.st5{letter-spacing:4.6;}
	.st6{fill:none;stroke:#B7904C;stroke-width:2;stroke-miterlimit:10;}
</style>
<path class="st0" d="M197.1,48.1c-6.3-6.3-13.6-11.3-21.8-14.7c-8.5-3.6-17.5-5.4-26.7-5.4c-9.3,0-18.3,1.8-26.7,5.4
	c-8.2,3.5-15.5,8.4-21.8,14.7C93.7,54.4,88.7,61.8,85.3,70c-3.6,8.5-5.4,17.5-5.4,26.7v108.5h137.3V96.7c0-9.3-1.8-18.3-5.4-26.7
	C208.3,61.8,203.4,54.4,197.1,48.1z M100.9,82.9c1.2,7.8,3.5,14,7,19c0.6,0.9,0.6,2.2-0.1,3c-0.2,0.3-0.5,0.6-0.7,0.9
	c-0.9,1.4-0.7,3.4,0.5,4.5c2.9,2.9,7.2,5.1,12.9,7.6c0.1,0,0.2,0.1,0.3,0.1c0.3,0,0.7-0.2,0.8-0.6c0.1-0.4-0.1-0.8-0.5-1
	c-4.8-2.1-9.5-4.4-12.4-7.3c-0.6-0.6-0.8-1.8-0.3-2.5c0.2-0.2,0.3-0.5,0.5-0.8c1.1-1.4,1.1-3.5,0.1-4.9c-3.4-4.8-5.6-10.8-6.7-18.4
	c0-0.1,0-0.1-0.1-0.2c0.6,0.1,1.1,0.4,1.5,1c8.7,12.2,19.5,24.4,30.6,34.5c0.2,0.1,0.4,0.2,0.5,0.2c0.2,0,0.5-0.1,0.6-0.3
	c0.3-0.3,0.2-0.8-0.1-1.1c-4.7-4.3-9.3-8.9-13.7-13.8c8.3-9.3,15.6-19.7,21.9-30.9c0.3-0.5,0.7-0.9,1.3-1.1c0,0,0,0.1,0,0.1
	c1.7,9.9,4.9,17.9,9.8,24.3c0.9,1.2,0.9,2.9-0.1,4c-0.3,0.4-0.6,0.8-0.9,1.2c-1.2,1.8-0.9,4.2,0.7,5.6c4,3.7,10.1,6.5,18,9.7
	c0.1,0,0.2,0.1,0.3,0.1c0.3,0,0.7-0.2,0.8-0.6c0.1-0.4-0.1-0.8-0.5-1c-6.7-2.7-13.5-5.7-17.5-9.4c-1-0.9-1.2-2.4-0.4-3.5
	c0.2-0.3,0.5-0.7,0.8-1c1.5-1.7,1.5-4.3,0.2-6.1c-4.7-6.2-7.8-13.8-9.5-23.4c0.4,0.2,0.8,0.4,1.1,0.8c12,16.9,28.3,33.9,42.4,44.3
	c0.1,0.1,0.3,0.2,0.5,0.2c0.2,0,0.5-0.1,0.6-0.3c0.3-0.4,0.2-0.9-0.2-1.2c-6-4.5-12.5-10.1-18.8-16.5c3.2-4.7,6.3-9.6,9.1-14.7
	c0.2-0.4,0.5-0.7,0.9-0.9c0,0.1,0,0.2,0,0.2c1.7,7.8,5,14,10,19.1c0.4,0.4,0.6,0.9,0.6,1.4c0,0.5-0.3,1-0.7,1.4
	c-0.4,0.3-0.7,0.6-0.9,0.9c-0.6,0.7-0.9,1.5-0.8,2.4c0.1,0.9,0.6,1.7,1.5,2.3c1.2,0.9,2.7,1.7,4.4,2.5c0.1,0.1,0.2,0.1,0.3,0.1
	c0.3,0,0.6-0.2,0.8-0.5c0.1-0.4-0.1-0.8-0.4-1c-1.6-0.8-3-1.6-4.2-2.4c-0.5-0.3-0.7-0.8-0.8-1.2c0-0.4,0.1-0.8,0.4-1.1
	c0.2-0.2,0.5-0.5,0.8-0.8c0.8-0.7,1.2-1.6,1.2-2.5c0-0.9-0.3-1.9-1.1-2.6c-4.8-4.8-7.9-10.8-9.5-18.3c0-0.1,0-0.1-0.1-0.2
	c0.6,0.1,1.2,0.4,1.6,1c8.6,12.1,19.3,24.2,30.3,34.2v47.9h-11c-1.6,0-2.8-1.3-2.8-2.8v-15.4c0,0,0,0,0,0c3.2,6.3,8.3,9.2,12,10.5
	c0.1,0,0.2,0,0.3,0c0.3,0,0.7-0.2,0.8-0.6c0.1-0.4-0.1-0.8-0.5-1c-3.4-1.2-8.1-3.9-11.1-9.7c-0.6-1.1-1.1-2.3-1.4-3.6v-10.1
	c3,6.2,7.8,9,11.2,10.3c0.1,0,0.2,0.1,0.3,0.1c0.3,0,0.7-0.2,0.8-0.6c0.1-0.4-0.1-0.8-0.5-1c-3.2-1.2-7.6-3.9-10.4-9.7
	c-0.5-1.1-1-2.3-1.4-3.6v-5.5c2.7,6,6.9,8.7,10,10c0.1,0,0.2,0.1,0.3,0.1c0.3,0,0.7-0.2,0.8-0.6c0.1-0.4-0.1-0.8-0.5-1
	c-2.9-1.2-6.8-3.9-9.4-9.7c-0.5-1.2-0.9-2.4-1.3-3.7c0,0,0,0,0,0c0,0,0,0,0-0.1c0,0,0,0,0,0c0,0,0,0,0,0c0,0,0,0,0,0c0,0,0,0,0,0
	c0,0,0,0,0,0c0,0,0,0,0,0c0,0,0,0,0,0c0,0,0,0,0,0c0,0,0,0,0,0c0,0,0,0,0,0c0,0,0,0,0,0c0,0,0,0,0,0c0,0,0,0,0,0c0,0,0,0-0.1,0
	c0,0,0,0,0,0c0,0,0,0,0,0c0,0,0,0,0,0c0,0,0,0-0.1,0c0,0,0,0-0.1,0c0,0,0,0,0,0c0,0,0,0,0,0c0,0,0,0-0.1,0c0,0,0,0-0.1,0
	c0,0,0,0,0,0c0,0,0,0,0,0c0,0,0,0,0,0c0,0,0,0-0.1,0c0,0,0,0,0,0c0,0,0,0,0,0c0,0,0,0,0,0c0,0,0,0,0,0c0,0,0,0,0,0c0,0,0,0,0,0
	c0,0,0,0,0,0c0,0,0,0,0,0c0,0,0,0,0,0c0,0,0,0,0,0c0,0,0,0,0,0c0,0,0,0,0,0c0,0,0,0,0,0c0,0,0,0,0,0.1c0,0,0,0,0,0
	c-0.3,1.3-0.8,2.6-1.3,3.7c-2.5,5.8-6.5,8.5-9.4,9.7c-0.4,0.2-0.6,0.6-0.5,1c0.1,0.4,0.4,0.6,0.8,0.6c0.1,0,0.2,0,0.3-0.1
	c3.1-1.3,7.3-4,10-10v5.5c-0.4,1.3-0.8,2.5-1.4,3.6c-2.8,5.8-7.2,8.5-10.4,9.7c-0.4,0.2-0.6,0.6-0.5,1c0.1,0.4,0.4,0.6,0.8,0.6
	c0.1,0,0.2,0,0.3-0.1c3.5-1.3,8.2-4.1,11.2-10.3v10.1c-0.4,1.3-0.9,2.5-1.4,3.6c-3,5.8-7.6,8.5-11.1,9.7c-0.4,0.1-0.7,0.6-0.5,1
	c0.1,0.4,0.4,0.6,0.8,0.6c0.1,0,0.2,0,0.3,0c3.7-1.3,8.8-4.2,12-10.5c0,0,0,0,0,0v15.4c0,1.6-1.3,2.8-2.8,2.8h-26.8
	c-1.2,0-2.2-1.1-2.1-2.3l2.2-23c0.1-1.3,1.5-2,2.6-1.4l7.1,4c0.1,0.1,0.3,0.1,0.4,0.1c0.3,0,0.6-0.1,0.7-0.4
	c0.2-0.4,0.1-0.9-0.3-1.1l-32.7-18.3c0,0,0,0,0,0c0,0-0.1,0-0.1,0c0,0,0,0-0.1,0c0,0,0,0-0.1,0c0,0-0.1,0-0.1,0c0,0,0,0-0.1,0
	c0,0-0.1,0-0.1,0c0,0,0,0-0.1,0c0,0-0.1,0-0.1,0c0,0,0,0-0.1,0c0,0-0.1,0-0.1,0c0,0,0,0,0,0l-32.7,18.3c-0.4,0.2-0.5,0.7-0.3,1.1
	c0.1,0.3,0.4,0.4,0.7,0.4c0.1,0,0.3,0,0.4-0.1l7.1-4c1.1-0.6,2.5,0.1,2.6,1.4l2.1,23c0.1,1.2-0.8,2.3-2.1,2.3H99.8
	c-1.6,0-2.8-1.3-2.8-2.8v-16.2c0,0,0,0,0,0c3.2,6.3,8.3,9.2,12,10.5c0.1,0,0.2,0,0.3,0c0.3,0,0.7-0.2,0.8-0.6c0.1-0.4-0.1-0.8-0.5-1
	c-3.4-1.2-8.1-3.9-11.1-9.7c-0.6-1.1-1.1-2.3-1.4-3.6v-10.1c3,6.2,7.8,9,11.2,10.3c0.1,0,0.2,0.1,0.3,0.1c0.3,0,0.7-0.2,0.8-0.6
	c0.1-0.4-0.1-0.8-0.5-1c-3.2-1.2-7.6-3.9-10.4-9.7c-0.5-1.1-1-2.3-1.4-3.6V122c2.7,6,6.9,8.7,10,10c0.1,0,0.2,0.1,0.3,0.1
	c0.3,0,0.7-0.2,0.8-0.6c0.1-0.4-0.1-0.8-0.5-1c-2.9-1.2-6.8-3.9-9.4-9.7c-0.5-1.2-0.9-2.4-1.3-3.7c0,0,0,0,0,0c0,0,0,0,0-0.1
	c0,0,0,0,0,0c0,0,0,0,0,0c0,0,0,0,0,0c0,0,0,0,0,0c0,0,0,0,0,0c0,0,0,0,0,0c0,0,0,0,0,0c0,0,0,0,0,0c0,0,0,0,0,0c0,0,0,0,0,0
	c0,0,0,0,0,0c0,0,0,0,0,0c0,0,0,0,0,0c0,0,0,0-0.1,0c0,0,0,0,0,0c0,0,0,0,0,0c0,0,0,0,0,0c0,0,0,0-0.1,0c0,0,0,0-0.1,0c0,0,0,0,0,0
	c0,0,0,0,0,0c0,0,0,0-0.1,0c0,0,0,0-0.1,0c0,0,0,0,0,0c0,0,0,0,0,0c0,0,0,0,0,0c0,0,0,0-0.1,0c0,0,0,0,0,0c0,0,0,0,0,0c0,0,0,0,0,0
	c0,0,0,0,0,0c0,0,0,0,0,0c0,0,0,0,0,0c0,0,0,0,0,0c0,0,0,0,0,0c0,0,0,0,0,0c0,0,0,0,0,0c0,0,0,0,0,0c0,0,0,0,0,0c0,0,0,0,0,0
	c0,0,0,0,0,0.1c0,0,0,0,0,0c-0.3,1.3-0.8,2.6-1.3,3.7c-2.5,5.8-6.5,8.5-9.4,9.7c-0.4,0.2-0.6,0.6-0.5,1c0.1,0.4,0.4,0.6,0.8,0.6
	c0.1,0,0.2,0,0.3-0.1c3.1-1.3,7.3-4,10-10v5.5c-0.4,1.3-0.8,2.5-1.4,3.6c-2.8,5.8-7.2,8.5-10.4,9.7c-0.4,0.2-0.6,0.6-0.5,1
	c0.1,0.4,0.4,0.6,0.8,0.6c0.1,0,0.2,0,0.3-0.1c3.5-1.3,8.2-4.1,11.2-10.3v10.1c-0.4,1.3-0.9,2.5-1.4,3.6c-3,5.8-7.6,8.5-11.1,9.7
	c-0.4,0.1-0.7,0.6-0.5,1c0.1,0.4,0.4,0.6,0.8,0.6c0.1,0,0.2,0,0.3,0c3.7-1.3,8.8-4.2,12-10.5c0,0,0,0,0,0v16.2
	c0,1.6-1.3,2.8-2.8,2.8h-11v-55c6.9-8.2,13-17.2,18.4-26.9c0.2-0.4,0.6-0.7,1-1C100.9,82.8,100.9,82.8,100.9,82.9z M215.6,167.2v4.9
	c-3.9,0.1-6,1.4-8,2.5c-2.1,1.2-4,2.3-8,2.3c-4,0-6-1.1-8-2.3c-2.2-1.2-4.4-2.5-8.8-2.5c-4.4,0-6.7,1.3-8.8,2.5
	c-2.1,1.2-4,2.3-8,2.3c-4,0-6-1.1-8-2.3c-2.2-1.2-4.4-2.5-8.8-2.5c-4.4,0-6.7,1.3-8.8,2.5c-2.1,1.2-4,2.3-8,2.3c-4,0-6-1.1-8-2.3
	c-2.2-1.2-4.4-2.5-8.8-2.5c-4.4,0-6.7,1.3-8.8,2.5c-2.1,1.2-4,2.3-8,2.3c-4,0-6-1.1-8-2.3c-2.2-1.2-4.4-2.5-8.8-2.5c0,0,0,0,0,0
	v-4.9H215.6z M148.8,125.3l14.6,8.1c0.3,0.1,0.2,0.5-0.1,0.5h-30.4c-0.3,0-0.4-0.4-0.1-0.5l14.6-8.1
	C147.8,125,148.3,125,148.8,125.3z M128.9,135.5h38.4l1.1,0.6c0.6,0.4,1,1.1,0.9,1.8l-2.3,23.5h-10.8c-0.4,0-0.8,0.3-0.8,0.7
	c0,0.5,0.3,0.9,0.8,0.9h10.7l-0.2,2.4h-13.5v-16h-11v16h-12.7l-0.2-2.4h10.6c0.4,0,0.8-0.3,0.8-0.7c0-0.5-0.3-0.9-0.8-0.9h-10.7
	l-2.1-23.5c-0.1-0.7,0.3-1.4,0.9-1.8L128.9,135.5z M151.5,165.5h-7.8v-14.3h7.8V165.5z M81.5,173.7
	C81.5,173.7,81.5,173.7,81.5,173.7c4,0,6,1.1,8,2.3c2.2,1.2,4.4,2.5,8.8,2.5c4.4,0,6.7-1.3,8.8-2.5c2.1-1.2,4-2.3,8-2.3
	c4,0,6,1.1,8,2.3c2.2,1.2,4.4,2.5,8.8,2.5c4.4,0,6.7-1.3,8.8-2.5c2.1-1.2,4-2.3,8-2.3c4,0,6,1.1,8,2.3c2.2,1.2,4.4,2.5,8.8,2.5
	c4.4,0,6.7-1.3,8.8-2.5c2.1-1.2,4-2.3,8-2.3c4,0,6,1.1,8,2.3c2.2,1.2,4.4,2.5,8.8,2.5c4.4,0,6.7-1.3,8.8-2.5
	c1.9-1.1,3.8-2.2,7.2-2.3v9c-3.9,0.1-6,1.4-8,2.5c-2.1,1.2-4,2.3-8,2.3c-4,0-6-1.1-8-2.3c-2.2-1.2-4.4-2.5-8.8-2.5
	c-4.4,0-6.7,1.3-8.8,2.5c-2.1,1.2-4,2.3-8,2.3c-4,0-6-1.1-8-2.3c-2.2-1.2-4.4-2.5-8.8-2.5c-4.4,0-6.7,1.3-8.8,2.5
	c-2.1,1.2-4,2.3-8,2.3c-4,0-6-1.1-8-2.3c-2.2-1.2-4.4-2.5-8.8-2.5c-4.4,0-6.7,1.3-8.8,2.5c-2.1,1.2-4,2.3-8,2.3c-4,0-6-1.1-8-2.3
	c-2.2-1.2-4.4-2.5-8.8-2.5c0,0,0,0,0,0V173.7z M81.5,184.3C81.5,184.3,81.5,184.3,81.5,184.3c4,0,6,1.1,8,2.3
	c2.2,1.2,4.4,2.5,8.8,2.5c4.4,0,6.7-1.3,8.8-2.5c2.1-1.2,4-2.3,8-2.3c4,0,6,1.1,8,2.3c2.2,1.2,4.4,2.5,8.8,2.5
	c4.4,0,6.7-1.3,8.8-2.5c2.1-1.2,4-2.3,8-2.3c4,0,6,1.1,8,2.3c2.2,1.2,4.4,2.5,8.8,2.5c4.4,0,6.7-1.3,8.8-2.5c2.1-1.2,4-2.3,8-2.3
	c4,0,6,1.1,8,2.3c2.2,1.2,4.4,2.5,8.8,2.5c4.4,0,6.7-1.3,8.8-2.5c1.9-1.1,3.8-2.2,7.2-2.3v8.2c-3.9,0.1-6,1.4-8,2.5
	c-2.1,1.2-4,2.3-8,2.3c-4,0-6-1.1-8-2.3c-2.2-1.2-4.4-2.5-8.8-2.5c-4.4,0-6.7,1.3-8.8,2.5c-2.1,1.2-4,2.3-8,2.3c-4,0-6-1.1-8-2.3
	c-2.2-1.2-4.4-2.5-8.8-2.5c-4.4,0-6.7,1.3-8.8,2.5c-2.1,1.2-4,2.3-8,2.3c-4,0-6-1.1-8-2.3c-2.2-1.2-4.4-2.5-8.8-2.5
	c-4.4,0-6.7,1.3-8.8,2.5c-2.1,1.2-4,2.3-8,2.3c-4,0-6-1.1-8-2.3c-2.2-1.2-4.4-2.5-8.8-2.5c0,0,0,0,0,0V184.3z M83.8,203.6
	c-1.3,0-2.3-1-2.3-2.3v-7.2c0,0,0,0,0,0c4,0,6,1.1,8,2.3c2.2,1.2,4.4,2.5,8.8,2.5c4.4,0,6.7-1.3,8.8-2.5c2.1-1.2,4-2.3,8-2.3
	c4,0,6,1.1,8,2.3c2.2,1.2,4.4,2.5,8.8,2.5c4.4,0,6.7-1.3,8.8-2.5c2.1-1.2,4-2.3,8-2.3c4,0,6,1.1,8,2.3c2.2,1.2,4.4,2.5,8.8,2.5
	c4.4,0,6.7-1.3,8.8-2.5c2.1-1.2,4-2.3,8-2.3c4,0,6,1.1,8,2.3c2.2,1.2,4.4,2.5,8.8,2.5c4.4,0,6.7-1.3,8.8-2.5
	c1.9-1.1,3.8-2.2,7.2-2.3v7.2c0,1.3-1,2.3-2.3,2.3H83.8z M215.6,112.8c0,1-1.2,1.5-1.9,0.8c-9.8-9.3-19.3-20.3-27-31.1
	c-0.8-1.1-2.1-1.7-3.5-1.7c-1.4,0.1-2.6,0.8-3.3,2c-2,3.6-4.1,7.2-6.4,10.6c-1.3,1.9-4,2.2-5.6,0.5c-6.8-7.2-13.4-15.2-19-23.1
	c-0.8-1.1-2.1-1.7-3.5-1.7c-1.4,0.1-2.6,0.8-3.3,2c-5.5,9.8-11.8,19-18.8,27.4c-1.4,1.7-4,1.7-5.4,0c-4.6-5.3-8.9-10.7-12.8-16.2
	c-0.8-1.1-2.1-1.7-3.5-1.7c-1.4,0.1-2.6,0.8-3.3,2c-4.4,8-9.5,15.6-14.9,22.6c-0.7,0.9-2,0.4-2-0.7v-7.7c0-36.9,29.7-67.2,66.7-67.4
	c37.1-0.2,67.4,29.9,67.4,67V112.8z"/>
<path class="st0" d="M217,67.8c-3.7-8.8-9.1-16.8-15.9-23.6c-6.8-6.8-14.8-12.2-23.6-15.9c-9.2-3.9-18.9-5.8-28.9-5.8
	c-10,0-19.8,2-28.9,5.8c-8.9,3.7-16.8,9.1-23.6,15.9C89.2,51,83.8,58.9,80.1,67.8c-3.9,9.2-5.8,18.9-5.8,28.9v114.2h148.6V96.7
	C222.8,86.7,220.9,76.9,217,67.8z M217,209.2H80.1c-2.3,0-4.3-1.9-4.3-4.3V96.7c0-9.8,1.9-19.3,5.7-28.3c3.7-8.7,8.9-16.4,15.6-23.1
	c6.7-6.7,14.4-11.9,23.1-15.6c9-3.8,18.5-5.7,28.3-5.7c9.8,0,19.3,1.9,28.3,5.7c8.7,3.7,16.4,8.9,23.1,15.6
	c6.7,6.7,11.9,14.4,15.6,23.1c3.8,9,5.7,18.5,5.7,28.3V205C221.2,207.3,219.3,209.2,217,209.2z"/>
<path class="st0" d="M129.3,140.6h37.5c0.4,0,0.8-0.4,0.8-0.8c0-0.4-0.4-0.8-0.8-0.8h-37.5c-0.4,0-0.8,0.4-0.8,0.8
	C128.5,140.3,128.8,140.6,129.3,140.6z"/>
<path class="st0" d="M129.3,145.7h37.5c0.4,0,0.8-0.4,0.8-0.8s-0.4-0.8-0.8-0.8h-37.5c-0.4,0-0.8,0.4-0.8,0.8
	S128.8,145.7,129.3,145.7z"/>
<path class="st0" d="M166.8,152.3h-10.7c-0.4,0-0.8,0.4-0.8,0.8c0,0.4,0.4,0.8,0.8,0.8h10.7c0.4,0,0.8-0.4,0.8-0.8
	C167.6,152.6,167.3,152.3,166.8,152.3z"/>
<path class="st0" d="M139.7,152.3h-10.4c-0.4,0-0.8,0.4-0.8,0.8c0,0.4,0.4,0.8,0.8,0.8h10.4c0.4,0,0.8-0.4,0.8-0.8
	C140.5,152.6,140.1,152.3,139.7,152.3z"/>
<path class="st0" d="M140.8,131h14.6c0.4,0,0.8-0.4,0.8-0.8c0-0.4-0.4-0.8-0.8-0.8h-14.6c-0.4,0-0.8,0.4-0.8,0.8
	C140,130.6,140.3,131,140.8,131z"/>
<text transform="matrix(1.09 0 0 1 15.709 260.2461)" class="st1 st2 st3">LAKE HOUSE</text>
<text transform="matrix(1.09 0 0 1 99.9619 286.1816)" class="st1 st2 st4 st5">RENTALS</text>
<rect x="0.9" y="0.9" class="st6" width="298.1" height="298.1"/>
</svg>
